<svg width="26" height="19" viewBox="0 0 26 19" fill="none" xmlns="http://www.w3.org/2000/svg">
<path d="M26 4.75V16.625C26 17.9312 24.9364 19 23.6364 19H4.72727C4.07727 19 3.54545 18.4656 3.54545 17.8125C3.54545 17.1594 4.07727 16.625 4.72727 16.625H23.6364V4.75C23.6364 4.09688 24.1682 3.5625 24.8182 3.5625C25.4682 3.5625 26 4.09688 26 4.75ZM3.54545 14.25C1.58364 14.25 0 12.6587 0 10.6875V3.5625C0 1.59125 1.58364 0 3.54545 0H17.7273C19.6891 0 21.2727 1.59125 21.2727 3.5625V11.875C21.2727 13.1812 20.2091 14.25 18.9091 14.25H3.54545ZM7.09091 7.125C7.09091 9.09625 8.67455 10.6875 10.6364 10.6875C12.5982 10.6875 14.1818 9.09625 14.1818 7.125C14.1818 5.15375 12.5982 3.5625 10.6364 3.5625C8.67455 3.5625 7.09091 5.15375 7.09091 7.125Z" fill="#F37B21"/>
</svg>
