<svg width="20" height="24" viewBox="0 0 20 24" fill="none" xmlns="http://www.w3.org/2000/svg">
<path d="M19.2 7.2L12 0H2.4C1.76348 0 1.15303 0.252856 0.702944 0.702944C0.252856 1.15303 0 1.76348 0 2.4V21.6C0 22.2365 0.252856 22.847 0.702944 23.2971C1.15303 23.7471 1.76348 24 2.4 24H16.8C17.4365 24 18.047 23.7471 18.4971 23.2971C18.9471 22.847 19.2 22.2365 19.2 21.6V7.2ZM6 20.4H3.6V9.6H6V20.4ZM10.8 20.4H8.4V13.2H10.8V20.4ZM15.6 20.4H13.2V16.8H15.6V20.4ZM12 8.4H10.8V2.4L16.8 8.4H12Z" fill="#F37B21"/>
</svg>
