<svg width="20" height="24" viewBox="0 0 20 24" fill="none" xmlns="http://www.w3.org/2000/svg">
<path d="M15.2727 2.18182H18.5455C18.8348 2.18182 19.1123 2.29675 19.3168 2.50134C19.5214 2.70592 19.6364 2.9834 19.6364 3.27273V22.9091C19.6364 23.1984 19.5214 23.4759 19.3168 23.6805C19.1123 23.8851 18.8348 24 18.5455 24H1.09091C0.801582 24 0.524105 23.8851 0.31952 23.6805C0.114935 23.4759 0 23.1984 0 22.9091V3.27273C0 2.9834 0.114935 2.70592 0.31952 2.50134C0.524105 2.29675 0.801582 2.18182 1.09091 2.18182H4.36364V0H6.54545V2.18182H13.0909V0H15.2727V2.18182ZM4.36364 8.72727V10.9091H15.2727V8.72727H4.36364ZM4.36364 13.0909V15.2727H15.2727V13.0909H4.36364Z" fill="#F37B21"/>
</svg>
