<svg width="52" height="52" viewBox="0 0 52 52" fill="none" xmlns="http://www.w3.org/2000/svg">
<rect width="52" height="52" rx="26" fill="#FDE9E9"/>
<path d="M16.5714 20.5H35.4286" stroke="#F34141" stroke-linecap="round" stroke-linejoin="round"/>
<path d="M18.9286 20.5H33.0714V34.6429C33.0714 35.0596 32.9059 35.4593 32.6112 35.754C32.3165 36.0487 31.9168 36.2143 31.5 36.2143H20.5C20.0832 36.2143 19.6835 36.0487 19.3888 35.754C19.0941 35.4593 18.9286 35.0596 18.9286 34.6429V20.5Z" stroke="#F34141" stroke-linecap="round" stroke-linejoin="round"/>
<path d="M22.0714 20.4999V19.7142C22.0714 18.6723 22.4853 17.673 23.2221 16.9363C23.9588 16.1995 24.9581 15.7856 26 15.7856C27.0419 15.7856 28.0412 16.1995 28.7779 16.9363C29.5147 17.673 29.9286 18.6723 29.9286 19.7142V20.4999" stroke="#F34141" stroke-linecap="round" stroke-linejoin="round"/>
</svg>
