<svg width="44" height="44" viewBox="0 0 44 44" fill="none" xmlns="http://www.w3.org/2000/svg">
<rect width="44" height="44" rx="22" fill="white"/>
<path d="M30.6429 30.6428C30.6429 31.0596 30.4773 31.4593 30.1826 31.754C29.8879 32.0487 29.4882 32.2142 29.0715 32.2142H14.9286C14.5118 32.2142 14.1121 32.0487 13.8174 31.754C13.5227 31.4593 13.3572 31.0596 13.3572 30.6428V13.3571C13.3572 12.9403 13.5227 12.5406 13.8174 12.2459C14.1121 11.9512 14.5118 11.7856 14.9286 11.7856H22.7857L30.6429 19.6428V30.6428Z" stroke="#2A2A2A" stroke-linecap="round" stroke-linejoin="round"/>
<path d="M30.6429 30.6428C30.6429 31.0596 30.4773 31.4593 30.1826 31.754C29.8879 32.0487 29.4882 32.2142 29.0715 32.2142H14.9286C14.5118 32.2142 14.1121 32.0487 13.8174 31.754C13.5227 31.4593 13.3572 31.0596 13.3572 30.6428V13.3571C13.3572 12.9403 13.5227 12.5406 13.8174 12.2459C14.1121 11.9512 14.5118 11.7856 14.9286 11.7856H22.7857L30.6429 19.6428V30.6428Z" stroke="white" stroke-opacity="0.4" stroke-linecap="round" stroke-linejoin="round"/>
<path d="M22.7858 11.7856V19.6428H30.6429" stroke="#2A2A2A" stroke-linecap="round" stroke-linejoin="round"/>
<path d="M22.7858 11.7856V19.6428H30.6429" stroke="white" stroke-opacity="0.4" stroke-linecap="round" stroke-linejoin="round"/>
</svg>
