<svg width="18" height="24" viewBox="0 0 18 24" fill="none" xmlns="http://www.w3.org/2000/svg">
<path d="M9 0V6.75C9 7.34674 9.23705 7.91903 9.65901 8.34099C10.081 8.76295 10.6533 9 11.25 9H18V21.75C18 22.3467 17.7629 22.919 17.341 23.341C16.919 23.7629 16.3467 24 15.75 24H2.25C1.65326 24 1.08097 23.7629 0.659009 23.341C0.237053 22.919 0 22.3467 0 21.75V2.25C0 1.65326 0.237053 1.08097 0.659009 0.65901C1.08097 0.237053 1.65326 0 2.25 0H9ZM10.5 0.375V6.75C10.5 6.94891 10.579 7.13968 10.7197 7.28033C10.8603 7.42098 11.0511 7.5 11.25 7.5H17.625L10.5 0.375Z" fill="#F37B21"/>
</svg>
