<svg width="30" height="24" viewBox="0 0 30 24" fill="none" xmlns="http://www.w3.org/2000/svg">
<path d="M4.13857 13.618V17.4833C4.13857 18.4875 4.70794 19.4228 5.61892 19.9043L12.736 23.6595C13.59 24.1135 14.6149 24.1135 15.4689 23.6595L22.586 19.9043C23.497 19.4228 24.0663 18.4875 24.0663 17.4833V13.618L15.4689 18.1573C14.6149 18.6113 13.59 18.6113 12.736 18.1573L4.13857 13.618ZM12.736 0.330133L0.736616 6.65769C-0.245539 7.1804 -0.245539 8.55595 0.736616 9.07867L12.736 15.4062C13.59 15.8602 14.6149 15.8602 15.4689 15.4062L26.9132 9.36753V17.4971C26.9132 18.2536 27.5537 18.8726 28.3366 18.8726C29.1195 18.8726 29.76 18.2536 29.76 17.4971V8.67975C29.76 8.1708 29.4753 7.71687 29.0198 7.46927L15.4689 0.330133C15.0484 0.11338 14.5791 0 14.1025 0C13.6258 0 13.1565 0.11338 12.736 0.330133V0.330133Z" fill="#F37B21"/>
</svg>
