<svg width="25" height="24" viewBox="0 0 25 24" fill="none" xmlns="http://www.w3.org/2000/svg">
<path d="M24.3034 3.88775L12.7835 0.049207C12.5864 -0.0164023 12.3734 -0.0164023 12.1763 0.049207L0.674874 3.88175L0.673674 3.88211L0.656394 3.88786C0.653034 3.88906 0.650034 3.89086 0.646794 3.89206C0.605174 3.90634 0.564596 3.9235 0.525356 3.9434C0.520916 3.9458 0.516235 3.9476 0.511796 3.95C0.472992 3.97072 0.435664 3.99408 0.400077 4.01993C0.392269 4.02557 0.384548 4.03133 0.376917 4.03721C0.342243 4.0634 0.309369 4.0919 0.278518 4.1225C0.275758 4.12549 0.273238 4.12861 0.270478 4.13149C0.242063 4.16108 0.215569 4.19245 0.191158 4.22542C0.186118 4.23213 0.180958 4.23861 0.176159 4.24545C0.15097 4.28105 0.128238 4.31832 0.108119 4.35701C0.104999 4.363 0.102359 4.369 0.099359 4.375C0.0805813 4.41295 0.0643458 4.4521 0.0507596 4.4922C0.0495596 4.49591 0.0478796 4.49951 0.0466796 4.50335C0.0331216 4.54594 0.0225756 4.58943 0.0151198 4.6335C0.0135598 4.64274 0.0122398 4.65197 0.0109199 4.66109C0.00401577 4.70647 0.00036655 4.75229 0 4.7982V14.3945C0 14.6491 0.101142 14.8931 0.281175 15.0731C0.461208 15.2531 0.705386 15.3542 0.959992 15.3542C1.2146 15.3542 1.45877 15.2531 1.63881 15.0731C1.81884 14.8931 1.91998 14.6491 1.91998 14.3945V6.12969L5.95015 7.47258C4.88177 9.19711 4.53991 11.2743 4.99931 13.2501C5.45871 15.2259 6.682 16.9395 8.40173 18.0162C6.11172 18.8818 4.15762 20.455 2.82358 22.5071C2.753 22.6126 2.70407 22.7311 2.67963 22.8557C2.65518 22.9802 2.65571 23.1084 2.68117 23.2328C2.70664 23.3572 2.75653 23.4752 2.82797 23.5802C2.89941 23.6852 2.99098 23.7749 3.09736 23.8442C3.20374 23.9136 3.32283 23.9611 3.44772 23.9841C3.57261 24.0071 3.70083 24.0051 3.82495 23.9782C3.94906 23.9514 4.06661 23.9001 4.17078 23.8275C4.27495 23.7549 4.36367 23.6623 4.4318 23.5552C5.30395 22.2158 6.49682 21.1153 7.9022 20.3535C9.30759 19.5917 10.881 19.1927 12.4797 19.1927C14.0784 19.1927 15.6518 19.5917 17.0572 20.3535C18.4626 21.1153 19.6555 22.2158 20.5276 23.5552C20.5962 23.6615 20.685 23.7532 20.7891 23.825C20.8932 23.8969 21.0105 23.9474 21.1342 23.9738C21.2579 24.0002 21.3856 24.0019 21.5099 23.9788C21.6343 23.9557 21.7529 23.9083 21.8588 23.8392C21.9648 23.7702 22.056 23.6808 22.1274 23.5764C22.1987 23.472 22.2487 23.3545 22.2744 23.2307C22.3002 23.1069 22.3012 22.9793 22.2774 22.8551C22.2537 22.7309 22.2056 22.6126 22.136 22.5071C20.8019 20.455 18.8479 18.8819 16.5579 18.0163C18.2777 16.9396 19.501 15.226 19.9604 13.2502C20.4198 11.2744 20.0779 9.19712 19.0095 7.47258L24.3034 5.70865C24.4946 5.64499 24.6609 5.5228 24.7787 5.35939C24.8966 5.19598 24.96 4.99964 24.96 4.7982C24.96 4.59675 24.8966 4.40042 24.7787 4.23701C24.6609 4.0736 24.4946 3.95141 24.3034 3.88775ZM12.4799 17.2734C11.4146 17.2736 10.3701 16.9784 9.46265 16.4206C8.55517 15.8628 7.82024 15.0644 7.33959 14.114C6.85894 13.1637 6.6514 12.0987 6.74007 11.0375C6.82873 9.97625 7.21012 8.96042 7.84181 8.10294L12.1763 9.54719C12.3734 9.6128 12.5864 9.6128 12.7835 9.54719L17.118 8.10294C17.7497 8.96042 18.1311 9.97625 18.2197 11.0375C18.3084 12.0987 18.1008 13.1637 17.6202 14.114C17.1395 15.0644 16.4046 15.8628 15.4971 16.4206C14.5897 16.9784 13.5452 17.2736 12.4799 17.2734Z" fill="#F37B21"/>
</svg>
