<svg width="24" height="24" viewBox="0 0 24 24" fill="none" xmlns="http://www.w3.org/2000/svg">
    <path
        d="M18.8571 23.1428C18.2081 21.8836 17.225 20.8274 16.0154 20.0901C14.8058 19.3527 13.4166 18.9626 12 18.9626C10.5834 18.9626 9.19411 19.3527 7.98454 20.0901C6.77498 20.8274 5.7918 21.8836 5.14282 23.1428"
        fill="#FF5C00" />
    <path
        d="M20.5714 18.1029C21.7879 16.5162 22.5362 14.6207 22.7316 12.6309C22.9269 10.641 22.5616 8.6362 21.6769 6.84316C20.7922 5.05012 19.4235 3.5404 17.7255 2.48475C16.0275 1.42909 14.068 0.869629 12.0685 0.869629C10.0691 0.869629 8.1096 1.42909 6.41159 2.48475C4.71358 3.5404 3.34483 5.05012 2.46015 6.84316C1.57547 8.6362 1.21016 10.641 1.40553 12.6309C1.6009 14.6207 2.34916 16.5162 3.56568 18.1029"
        stroke="#2A2A2A" stroke-width="2" stroke-linecap="round" stroke-linejoin="round" />
    <path
        d="M12 15.4286C14.1302 15.4286 15.8571 13.7017 15.8571 11.5715C15.8571 9.44126 14.1302 7.71436 12 7.71436C9.86972 7.71436 8.14282 9.44126 8.14282 11.5715C8.14282 13.7017 9.86972 15.4286 12 15.4286Z"
        fill="#FF5C00" />
</svg>
    