<svg width="37" height="37" viewBox="0 0 37 37" fill="none" xmlns="http://www.w3.org/2000/svg">
<path opacity="0.3" fill-rule="evenodd" clip-rule="evenodd" d="M5.24121 30.4168C5.24121 31.1679 5.85015 31.7769 6.60131 31.7769H34.1054C34.8566 31.7769 35.4655 31.1679 35.4655 30.4168V11.9799C35.4655 11.2288 34.8566 10.6198 34.1054 10.6198H17.3309L13.1957 6.48454C12.9406 6.22948 12.5946 6.08618 12.2339 6.08618H6.60131C5.85015 6.08618 5.24121 6.69512 5.24121 7.44628V30.4168Z" fill="#2FE6C8"/>
<path fill-rule="evenodd" clip-rule="evenodd" d="M2.21973 27.3943C2.21973 28.1455 2.82866 28.7544 3.57982 28.7544H31.084C31.8351 28.7544 32.444 28.1455 32.444 27.3943V8.95746C32.444 8.2063 31.8351 7.59737 31.084 7.59737H14.3095L10.1742 3.46208C9.9191 3.20702 9.57316 3.06372 9.21244 3.06372H3.57982C2.82866 3.06372 2.21973 3.67266 2.21973 4.42382V27.3943Z" fill="#2FE6C8"/>
<path d="M14.9874 17.6998C14.9535 17.7136 14.9156 17.7136 14.8818 17.6998L13.9982 17.3423C13.8797 17.5443 13.8173 17.7743 13.8174 18.0085C13.8174 18.6931 14.3191 19.2496 14.9346 19.2496C15.55 19.2496 16.0518 18.6931 16.0518 18.0085C16.052 17.7743 15.9896 17.5443 15.871 17.3423L14.9874 17.6998Z" fill="#BAF7EC"/>
<path d="M18.869 13.7021H11V23.2978H18.869V13.7021ZM17.0551 21.2828C17.0418 21.2969 17.0258 21.3081 17.008 21.3158C16.9902 21.3235 16.971 21.3275 16.9516 21.3274H12.9175C12.8979 21.3275 12.8786 21.3235 12.8606 21.3157C12.8427 21.308 12.8265 21.2966 12.8132 21.2823C12.7998 21.268 12.7896 21.2511 12.7831 21.2326C12.7766 21.2142 12.7739 21.1946 12.7753 21.1751C12.8019 20.8084 12.9658 20.4653 13.2342 20.2142C13.5027 19.963 13.856 19.8224 14.2236 19.8203H15.6455C16.0131 19.8224 16.3664 19.963 16.6348 20.2142C16.9033 20.4653 17.0672 20.8084 17.0937 21.1751C17.0951 21.1947 17.0924 21.2144 17.0857 21.233C17.0791 21.2515 17.0687 21.2685 17.0551 21.2828ZM17.2461 18.1648C17.2461 18.2025 17.2311 18.2387 17.2044 18.2653C17.1778 18.292 17.1416 18.307 17.1039 18.307C17.0662 18.307 17.03 18.292 17.0034 18.2653C16.9767 18.2387 16.9617 18.2025 16.9617 18.1648V16.9014L16.133 17.2365C16.2651 17.4724 16.335 17.738 16.3361 18.0084C16.3361 18.8493 15.7084 19.5339 14.9345 19.5339C14.1606 19.5339 13.533 18.8493 13.533 18.0084C13.5341 17.738 13.604 17.4724 13.7361 17.2365L12.7205 16.8303C12.6947 16.8194 12.6727 16.8012 12.6572 16.7779C12.6418 16.7546 12.6335 16.7272 12.6335 16.6993C12.6335 16.6713 12.6418 16.6439 12.6572 16.6206C12.6727 16.5973 12.6947 16.5791 12.7205 16.5682L14.8898 15.6907C14.9237 15.6772 14.9616 15.6772 14.9955 15.6907L17.1648 16.5682C17.1876 16.5785 17.2072 16.5946 17.2217 16.615V16.6292C17.2355 16.6504 17.2433 16.675 17.244 16.7003L17.2461 18.1648Z" fill="#BAF7EC"/>
<path d="M18.8691 23.5781H11V24.287C10.9995 24.3805 11.0174 24.4731 11.0528 24.5596C11.0882 24.646 11.1403 24.7247 11.2062 24.7909C11.2721 24.8572 11.3504 24.9098 11.4367 24.9456C11.523 24.9815 11.6155 25 11.7089 25H18.1602C18.3482 25 18.5285 24.9253 18.6614 24.7924C18.7944 24.6594 18.8691 24.4791 18.8691 24.2911V23.5781ZM14.9345 24.7806C14.8377 24.7806 14.7431 24.7519 14.6626 24.6981C14.5821 24.6443 14.5193 24.5679 14.4823 24.4784C14.4452 24.389 14.4355 24.2905 14.4544 24.1956C14.4733 24.1006 14.5199 24.0134 14.5884 23.9449C14.6568 23.8765 14.7441 23.8299 14.839 23.811C14.934 23.7921 15.0324 23.8018 15.1219 23.8388C15.2113 23.8759 15.2878 23.9386 15.3416 24.0191C15.3954 24.0996 15.4241 24.1943 15.4241 24.2911C15.4241 24.4209 15.3725 24.5454 15.2807 24.6372C15.1889 24.729 15.0644 24.7806 14.9345 24.7806Z" fill="#BAF7EC"/>
<path d="M18.869 12.7089C18.869 12.6158 18.8507 12.5236 18.8151 12.4376C18.7795 12.3516 18.7272 12.2735 18.6614 12.2076C18.5956 12.1418 18.5174 12.0896 18.4314 12.054C18.3454 12.0183 18.2532 12 18.1601 12H11.7089C11.5209 12 11.3406 12.0747 11.2076 12.2076C11.0747 12.3406 11 12.5209 11 12.7089V13.4219H18.869V12.7089ZM16.0801 12.8511H13.7889C13.7512 12.8511 13.715 12.8361 13.6884 12.8094C13.6617 12.7828 13.6467 12.7466 13.6467 12.7089C13.6467 12.6712 13.6617 12.635 13.6884 12.6084C13.715 12.5817 13.7512 12.5667 13.7889 12.5667H16.0801C16.1179 12.5667 16.154 12.5817 16.1807 12.6084C16.2074 12.635 16.2223 12.6712 16.2223 12.7089C16.2223 12.7466 16.2074 12.7828 16.1807 12.8094C16.154 12.8361 16.1179 12.8511 16.0801 12.8511Z" fill="#BAF7EC"/>
<circle cx="19.5" cy="13.5" r="2.5" fill="#F5FFFC"/>
<path d="M18.9242 14.1576L18.3029 13.6057C18.2694 13.5759 18.224 13.5592 18.1767 13.5592C18.1293 13.5592 18.0839 13.5759 18.0504 13.6057C17.9806 13.6677 17.9806 13.7679 18.0504 13.8299L18.7989 14.4947C18.8687 14.5568 18.9815 14.5568 19.0513 14.4947L20.9457 12.812C21.0155 12.75 21.0155 12.6498 20.9457 12.5878C20.9122 12.558 20.8668 12.5413 20.8194 12.5413C20.7721 12.5413 20.7267 12.558 20.6932 12.5878L18.9242 14.1576Z" fill="#2FE6C8"/>
</svg>
