<svg width="24" height="24" viewBox="0 0 24 24" fill="none" xmlns="http://www.w3.org/2000/svg">
<path opacity="0.3" fill-rule="evenodd" clip-rule="evenodd" d="M2 19.5C2 20.3284 2.67157 21 3.5 21H20.5C21.3284 21 22 20.3284 22 19.5V8.5C22 7.67157 21.3284 7 20.5 7H10L7.43934 4.43934C7.15804 4.15804 6.7765 4 6.37868 4H3.5C2.67157 4 2 4.67157 2 5.5V19.5Z" fill="#51459E"/>
<path d="M10 14.25H12.6667V14.75H10V14.25ZM10 13H14V13.5H10V13ZM10 15.5H11.6667V16H10V15.5Z" fill="#F37B21"/>
<path d="M14.4545 10.8571H13.6364V10.5714C13.6364 10.4199 13.5789 10.2745 13.4766 10.1674C13.3743 10.0602 13.2356 10 13.0909 10H10.9091C10.7644 10 10.6257 10.0602 10.5234 10.1674C10.4211 10.2745 10.3636 10.4199 10.3636 10.5714V10.8571H9.54545C9.40079 10.8571 9.26205 10.9173 9.15976 11.0245C9.05747 11.1317 9 11.277 9 11.4286V17.4286C9 17.5801 9.05747 17.7255 9.15976 17.8326C9.26205 17.9398 9.40079 18 9.54545 18H14.4545C14.5992 18 14.7379 17.9398 14.8402 17.8326C14.9425 17.7255 15 17.5801 15 17.4286V11.4286C15 11.277 14.9425 11.1317 14.8402 11.0245C14.7379 10.9173 14.5992 10.8571 14.4545 10.8571ZM10.9091 10.5714H13.0909V11.7143H10.9091V10.5714ZM14.4545 17.4286H9.54545V11.4286H10.3636V12.2857H13.6364V11.4286H14.4545V17.4286Z" fill="#847EAF"/>
</svg>
