<svg width="26" height="29" viewBox="0 0 26 29" fill="none" xmlns="http://www.w3.org/2000/svg">
<path d="M10.3222 1.80537C10.538 1.27196 10.9082 0.815146 11.3853 0.493493C11.8624 0.17184 12.4247 0 13.0001 0C13.5756 0 14.1379 0.17184 14.615 0.493493C15.0921 0.815146 15.4623 1.27196 15.6781 1.80537C17.8141 2.3928 19.6982 3.66516 21.041 5.42706C22.3838 7.18895 23.1111 9.34294 23.1112 11.5582V18.3427L25.7574 22.312C25.9026 22.5296 25.9859 22.7824 25.9986 23.0436C26.0113 23.3048 25.9528 23.5646 25.8295 23.7951C25.7061 24.0257 25.5224 24.2185 25.2981 24.3528C25.0738 24.4872 24.8172 24.5582 24.5556 24.5581H18.0051C17.8312 25.7615 17.2296 26.8619 16.3104 27.6578C15.3912 28.4537 14.216 28.8918 13.0001 28.8918C11.7843 28.8918 10.6091 28.4537 9.68993 27.6578C8.77075 26.8619 8.16909 25.7615 7.99517 24.5581H1.44465C1.18315 24.5582 0.926538 24.4872 0.7022 24.3528C0.477861 24.2185 0.294211 24.0257 0.170842 23.7951C0.0474729 23.5646 -0.010986 23.3048 0.00170133 23.0436C0.0143887 22.7824 0.0977464 22.5296 0.242882 22.312L2.88909 18.3427V11.5582C2.88909 6.90134 6.03796 2.97825 10.3222 1.80537ZM10.9577 24.5581C11.1069 24.9809 11.3835 25.3469 11.7494 25.6058C12.1154 25.8647 12.5526 26.0037 13.0009 26.0037C13.4491 26.0037 13.8864 25.8647 14.2523 25.6058C14.6182 25.3469 14.8948 24.9809 15.044 24.5581H10.9563H10.9577ZM13.0001 4.33602C11.0847 4.33602 9.24772 5.09693 7.89329 6.45135C6.53887 7.80577 5.77796 9.64276 5.77796 11.5582V18.7804C5.77803 19.0657 5.69359 19.3447 5.5353 19.5821L4.14431 21.6693H21.8545L20.4636 19.5821C20.3058 19.3445 20.2218 19.0656 20.2223 18.7804V11.5582C20.2223 9.64276 19.4614 7.80577 18.107 6.45135C16.7526 5.09693 14.9156 4.33602 13.0001 4.33602Z" fill="#F37B21"/>
</svg>
