<svg width="10" height="10" viewBox="0 0 10 10" fill="none" xmlns="http://www.w3.org/2000/svg">
<path d="M9 0H1C0.4485 0 0 0.4485 0 1V10L2 8H9C9.5515 8 10 7.5515 10 7V1C10 0.4485 9.5515 0 9 0ZM3.5 5C3.36865 4.99997 3.23858 4.97406 3.11724 4.92376C2.9959 4.87347 2.88565 4.79976 2.79279 4.70686C2.69993 4.61395 2.62628 4.50367 2.57604 4.3823C2.52581 4.26093 2.49997 4.13085 2.5 3.9995C2.50003 3.86814 2.52594 3.73808 2.57624 3.61674C2.62653 3.4954 2.70024 3.38515 2.79314 3.29229C2.88605 3.19943 2.99633 3.12578 3.1177 3.07554C3.23907 3.02531 3.36915 2.99947 3.5005 2.9995C3.76578 2.99957 4.02017 3.10501 4.20771 3.29264C4.39525 3.48027 4.50057 3.73472 4.5005 4C4.50043 4.26528 4.39499 4.51967 4.20736 4.70721C4.01973 4.89475 3.76528 5.00007 3.5 5ZM6.5 5C6.36865 4.99997 6.23858 4.97406 6.11724 4.92376C5.9959 4.87347 5.88565 4.79976 5.79279 4.70686C5.69993 4.61395 5.62628 4.50367 5.57604 4.3823C5.52581 4.26093 5.49997 4.13085 5.5 3.9995C5.50003 3.86814 5.52594 3.73808 5.57624 3.61674C5.62653 3.4954 5.70024 3.38515 5.79314 3.29229C5.88605 3.19943 5.99633 3.12578 6.1177 3.07554C6.23907 3.02531 6.36915 2.99947 6.5005 2.9995C6.76578 2.99957 7.02017 3.10501 7.20771 3.29264C7.39525 3.48027 7.50057 3.73472 7.5005 4C7.50043 4.26528 7.39499 4.51967 7.20736 4.70721C7.01973 4.89475 6.76528 5.00007 6.5 5Z" fill="#F37B21"/>
</svg>
