<svg width="20" height="20" viewBox="0 0 20 20" fill="none" xmlns="http://www.w3.org/2000/svg">
    <path
        d="M10.7144 12.8572L6.42871 13.6286L7.143 9.28577L15.3287 1.12862C15.4615 0.994726 15.6195 0.888448 15.7936 0.815922C15.9677 0.743395 16.1544 0.706055 16.343 0.706055C16.5316 0.706055 16.7183 0.743395 16.8924 0.815922C17.0665 0.888448 17.2245 0.994726 17.3573 1.12862L18.8716 2.64291C19.0055 2.77571 19.1117 2.93372 19.1843 3.1078C19.2568 3.28188 19.2941 3.46861 19.2941 3.65719C19.2941 3.84578 19.2568 4.03251 19.1843 4.20659C19.1117 4.38067 19.0055 4.53868 18.8716 4.67148L10.7144 12.8572Z"
        stroke="#2A2A2A" stroke-linecap="round" stroke-linejoin="round" />
    <path
        d="M10.7144 12.8572L6.42871 13.6286L7.143 9.28577L15.3287 1.12862C15.4615 0.994726 15.6195 0.888448 15.7936 0.815922C15.9677 0.743395 16.1544 0.706055 16.343 0.706055C16.5316 0.706055 16.7183 0.743395 16.8924 0.815922C17.0665 0.888448 17.2245 0.994726 17.3573 1.12862L18.8716 2.64291C19.0055 2.77571 19.1117 2.93372 19.1843 3.1078C19.2568 3.28188 19.2941 3.46861 19.2941 3.65719C19.2941 3.84578 19.2568 4.03251 19.1843 4.20659C19.1117 4.38067 19.0055 4.53868 18.8716 4.67148L10.7144 12.8572Z"
        stroke="white" stroke-opacity="0.4" stroke-linecap="round" stroke-linejoin="round" />
    <path
        d="M17.1429 13.5715V17.8572C17.1429 18.2361 16.9924 18.5994 16.7245 18.8673C16.4566 19.1352 16.0932 19.2857 15.7144 19.2857H2.14293C1.76405 19.2857 1.40068 19.1352 1.13277 18.8673C0.864865 18.5994 0.714355 18.2361 0.714355 17.8572V4.28575C0.714355 3.90687 0.864865 3.54351 1.13277 3.2756C1.40068 3.00769 1.76405 2.85718 2.14293 2.85718H6.42864"
        stroke="#2A2A2A" stroke-linecap="round" stroke-linejoin="round" />
    <path
        d="M17.1429 13.5715V17.8572C17.1429 18.2361 16.9924 18.5994 16.7245 18.8673C16.4566 19.1352 16.0932 19.2857 15.7144 19.2857H2.14293C1.76405 19.2857 1.40068 19.1352 1.13277 18.8673C0.864865 18.5994 0.714355 18.2361 0.714355 17.8572V4.28575C0.714355 3.90687 0.864865 3.54351 1.13277 3.2756C1.40068 3.00769 1.76405 2.85718 2.14293 2.85718H6.42864"
        stroke="white" stroke-opacity="0.4" stroke-linecap="round" stroke-linejoin="round" />
</svg>
    