<svg width="12" height="12" viewBox="0 0 12 12" fill="none" xmlns="http://www.w3.org/2000/svg">
<path d="M0.66108 12C0.569725 11.9998 0.479402 11.9807 0.395855 11.9437C0.312308 11.9067 0.237366 11.8528 0.175793 11.7853C0.113106 11.7183 0.0652717 11.6389 0.035427 11.5522C0.00558234 11.4655 -0.00559873 11.3734 0.0026168 11.2821L0.16394 9.50769L7.61642 2.05581L9.94541 4.38477L2.4949 11.836L0.721 11.9974C0.70108 11.9992 0.681084 12.0001 0.66108 12ZM10.4103 3.91911L8.08196 1.59015L9.47856 0.193171C9.53971 0.131933 9.61233 0.083352 9.69227 0.0502063C9.7722 0.0170606 9.85789 0 9.94442 0C10.031 0 10.1166 0.0170606 10.1966 0.0502063C10.2765 0.083352 10.3491 0.131933 10.4103 0.193171L11.8069 1.59015C11.8681 1.65132 11.9167 1.72396 11.9498 1.80392C11.9829 1.88388 12 1.96959 12 2.05614C12 2.1427 11.9829 2.2284 11.9498 2.30836C11.9167 2.38832 11.8681 2.46096 11.8069 2.52213L10.4109 3.91845L10.4103 3.91911Z" fill="#F37B21"/>
</svg>
