<svg width="24" height="24" viewBox="0 0 24 24" fill="none" xmlns="http://www.w3.org/2000/svg">
<path opacity="0.3" fill-rule="evenodd" clip-rule="evenodd" d="M2 19.5C2 20.3284 2.67157 21 3.5 21H20.5C21.3284 21 22 20.3284 22 19.5V8.5C22 7.67157 21.3284 7 20.5 7H10L7.43934 4.43934C7.15804 4.15804 6.7765 4 6.37868 4H3.5C2.67157 4 2 4.67157 2 5.5V19.5Z" fill="#51459E"/>
<path fill-rule="evenodd" clip-rule="evenodd" d="M12.6626 11.7641L9.69348 13.5692C9.61316 13.2681 9.45065 13.0006 9.23145 12.7921L12.2826 10.9946C12.3406 11.2856 12.4744 11.5492 12.6626 11.7641ZM9.26544 15.1745C9.4663 14.9723 9.61565 14.7189 9.69217 14.4355L12.7076 16.1864C12.5148 16.3897 12.3727 16.6415 12.3015 16.9216L9.26544 15.1745Z" fill="#51459E"/>
<path opacity="0.3" fill-rule="evenodd" clip-rule="evenodd" d="M14.417 11.9165C15.3835 11.9165 16.167 11.133 16.167 10.1665C16.167 9.20001 15.3835 8.4165 14.417 8.4165C13.4505 8.4165 12.667 9.20001 12.667 10.1665C12.667 11.133 13.4505 11.9165 14.417 11.9165Z" fill="#51459E"/>
<path opacity="0.3" fill-rule="evenodd" clip-rule="evenodd" d="M14.417 19.5C15.3835 19.5 16.167 18.7165 16.167 17.75C16.167 16.7835 15.3835 16 14.417 16C13.4505 16 12.667 16.7835 12.667 17.75C12.667 18.7165 13.4505 19.5 14.417 19.5Z" fill="#51459E"/>
<path opacity="0.3" fill-rule="evenodd" clip-rule="evenodd" d="M7.5498 15.8C8.5163 15.8 9.2998 15.0165 9.2998 14.05C9.2998 13.0836 8.5163 12.3 7.5498 12.3C6.58331 12.3 5.7998 13.0836 5.7998 14.05C5.7998 15.0165 6.58331 15.8 7.5498 15.8Z" fill="#51459E"/>
</svg>
