<svg width="10" height="10" viewBox="0 0 10 10" fill="none" xmlns="http://www.w3.org/2000/svg">
<path d="M1 9.5H1.5V3H1C0.734784 3 0.48043 3.10536 0.292893 3.29289C0.105357 3.48043 0 3.73478 0 4V8.5C0 8.76522 0.105357 9.01957 0.292893 9.20711C0.48043 9.39464 0.734784 9.5 1 9.5ZM9 3H5.5L6.061 1.316C6.11106 1.16571 6.12469 1.00567 6.10079 0.849077C6.07688 0.692482 6.01611 0.543807 5.92349 0.415297C5.83087 0.286788 5.70904 0.182121 5.56804 0.109918C5.42704 0.0377147 5.27091 4.10564e-05 5.1125 0H5L2.5 2.719V9.5H8L9.956 5.202L10 5V4C10 3.73478 9.89464 3.48043 9.70711 3.29289C9.51957 3.10536 9.26522 3 9 3Z" fill="#F37B21"/>
</svg>
