<svg width="20" height="18" viewBox="0 0 20 18" fill="none" xmlns="http://www.w3.org/2000/svg">
<path d="M20 16.4632C20 16.9284 19.8353 17.2833 19.5058 17.5279C19.1764 17.7725 18.7721 17.8947 18.2929 17.8947H1.7071C1.22791 17.8947 0.8236 17.7695 0.49416 17.5189C0.16472 17.2684 0 16.9165 0 16.4632C0 16.1053 0.107817 15.7414 0.32345 15.3716L8.60737 0.984211C9.0027 0.32807 9.4699 0 10.009 0C10.5481 0 11.0033 0.32807 11.3747 0.984211L19.6765 15.3895C19.8922 15.7712 20 16.1291 20 16.4632ZM11.2489 7.31895V4.70632H8.75112V7.31895C8.75112 7.48597 8.7631 7.64404 8.78706 7.79316C8.81102 7.94228 8.84397 8.1093 8.88589 8.29421C8.92782 8.47912 8.96077 8.63719 8.98473 8.76842L9.45193 11.6674H10.5121L10.9973 8.76842C11.0213 8.64912 11.0572 8.49404 11.1051 8.30316C11.153 8.11228 11.189 7.94228 11.2129 7.79316C11.2369 7.64404 11.2489 7.48597 11.2489 7.31895ZM11.2489 14.2442C11.2489 13.8982 11.1261 13.606 10.8805 13.3674C10.6349 13.1288 10.3384 13.0095 9.99102 13.0095C9.65559 13.0095 9.36508 13.1288 9.1195 13.3674C8.87391 13.606 8.75112 13.8982 8.75112 14.2442C8.75112 14.5902 8.87391 14.8854 9.1195 15.13C9.36508 15.3746 9.65559 15.4968 9.99102 15.4968C10.3384 15.4968 10.6349 15.3746 10.8805 15.13C11.1261 14.8854 11.2489 14.5902 11.2489 14.2442Z" fill="#B88217"/>
</svg>
