<svg width="20" height="20" viewBox="0 0 20 20" fill="none" xmlns="http://www.w3.org/2000/svg">
<path fill-rule="evenodd" clip-rule="evenodd" d="M10 20C15.523 20 20 15.523 20 10C20 4.477 15.523 0 10 0C4.477 0 0 4.477 0 10C0 15.523 4.477 20 10 20ZM15.371 6.835C15.4178 6.78681 15.4544 6.72968 15.4786 6.66703C15.5028 6.60439 15.5142 6.5375 15.512 6.47037C15.5098 6.40324 15.4941 6.33725 15.4658 6.27632C15.4375 6.21539 15.3973 6.16078 15.3474 6.11575C15.2976 6.07072 15.2392 6.03619 15.1757 6.01423C15.1123 5.99227 15.045 5.98331 14.978 5.98791C14.911 5.99251 14.8456 6.01056 14.7857 6.04098C14.7259 6.07141 14.6727 6.11359 14.6295 6.165L8.64 12.7835L5.345 9.638C5.24912 9.54637 5.12077 9.49658 4.98819 9.49958C4.8556 9.50258 4.72963 9.55812 4.638 9.654C4.54637 9.74988 4.49657 9.87823 4.49958 10.0108C4.50258 10.1434 4.55812 10.2694 4.654 10.361L8.321 13.861L8.6925 14.216L9.037 13.835L15.3705 6.835H15.371Z" fill="#37833B"/>
</svg>
