<svg width="20" height="20" viewBox="0 0 20 20" fill="none" xmlns="http://www.w3.org/2000/svg">
    <g clip-path="url(#clip0_1403_4971)">
        <path
            d="M19.2857 15V17.8571C19.2857 18.236 19.1352 18.5994 18.8673 18.8673C18.5994 19.1352 18.236 19.2857 17.8571 19.2857H15"
            stroke="#2A2A2A" stroke-linecap="round" stroke-linejoin="round" />
        <path
            d="M19.2857 15V17.8571C19.2857 18.236 19.1352 18.5994 18.8673 18.8673C18.5994 19.1352 18.236 19.2857 17.8571 19.2857H15"
            stroke="white" stroke-opacity="0.4" stroke-linecap="round" stroke-linejoin="round" />
        <path
            d="M15 0.714294H17.8571C18.236 0.714294 18.5994 0.864804 18.8673 1.13271C19.1352 1.40062 19.2857 1.76398 19.2857 2.14287V5.00001"
            stroke="#2A2A2A" stroke-linecap="round" stroke-linejoin="round" />
        <path
            d="M15 0.714294H17.8571C18.236 0.714294 18.5994 0.864804 18.8673 1.13271C19.1352 1.40062 19.2857 1.76398 19.2857 2.14287V5.00001"
            stroke="white" stroke-opacity="0.4" stroke-linecap="round" stroke-linejoin="round" />
        <path
            d="M0.714355 5.00001V2.14287C0.714355 1.76398 0.864865 1.40062 1.13277 1.13271C1.40068 0.864804 1.76405 0.714294 2.14293 0.714294H5.00007"
            stroke="#2A2A2A" stroke-linecap="round" stroke-linejoin="round" />
        <path
            d="M0.714355 5.00001V2.14287C0.714355 1.76398 0.864865 1.40062 1.13277 1.13271C1.40068 0.864804 1.76405 0.714294 2.14293 0.714294H5.00007"
            stroke="white" stroke-opacity="0.4" stroke-linecap="round" stroke-linejoin="round" />
        <path
            d="M5.00007 19.2857H2.14293C1.76405 19.2857 1.40068 19.1352 1.13277 18.8673C0.864865 18.5994 0.714355 18.236 0.714355 17.8571V15"
            stroke="#2A2A2A" stroke-linecap="round" stroke-linejoin="round" />
        <path
            d="M5.00007 19.2857H2.14293C1.76405 19.2857 1.40068 19.1352 1.13277 18.8673C0.864865 18.5994 0.714355 18.236 0.714355 17.8571V15"
            stroke="white" stroke-opacity="0.4" stroke-linecap="round" stroke-linejoin="round" />
        <path
            d="M9.99997 9.28573C11.5779 9.28573 12.8571 8.00654 12.8571 6.42858C12.8571 4.85063 11.5779 3.57144 9.99997 3.57144C8.42201 3.57144 7.14282 4.85063 7.14282 6.42858C7.14282 8.00654 8.42201 9.28573 9.99997 9.28573Z"
            stroke="#2A2A2A" stroke-linecap="round" stroke-linejoin="round" />
        <path
            d="M9.99997 9.28573C11.5779 9.28573 12.8571 8.00654 12.8571 6.42858C12.8571 4.85063 11.5779 3.57144 9.99997 3.57144C8.42201 3.57144 7.14282 4.85063 7.14282 6.42858C7.14282 8.00654 8.42201 9.28573 9.99997 9.28573Z"
            stroke="white" stroke-opacity="0.4" stroke-linecap="round" stroke-linejoin="round" />
        <path
            d="M14.5144 15C14.1082 14.1469 13.4685 13.4264 12.6695 12.9219C11.8706 12.4175 10.945 12.1497 10.0001 12.1497C9.05523 12.1497 8.12968 12.4175 7.33072 12.9219C6.53175 13.4264 5.89209 14.1469 5.48584 15"
            stroke="#2A2A2A" stroke-linecap="round" stroke-linejoin="round" />
        <path
            d="M14.5144 15C14.1082 14.1469 13.4685 13.4264 12.6695 12.9219C11.8706 12.4175 10.945 12.1497 10.0001 12.1497C9.05523 12.1497 8.12968 12.4175 7.33072 12.9219C6.53175 13.4264 5.89209 14.1469 5.48584 15"
            stroke="white" stroke-opacity="0.4" stroke-linecap="round" stroke-linejoin="round" />
    </g>
    <defs>
        <clipPath id="clip0_1403_4971">
            <rect width="20" height="20" fill="white" />
        </clipPath>
    </defs>
</svg>
    