<svg width="20" height="20" viewBox="0 0 20 20" fill="none" xmlns="http://www.w3.org/2000/svg">
    <g clip-path="url(#clip0_1438_24669)">
        <path
            d="M10.0001 19.2857C15.1284 19.2857 19.2858 15.1283 19.2858 9.99995C19.2858 4.87159 15.1284 0.714233 10.0001 0.714233C4.87171 0.714233 0.714355 4.87159 0.714355 9.99995C0.714355 15.1283 4.87171 19.2857 10.0001 19.2857Z"
            stroke="white" stroke-linecap="round" stroke-linejoin="round" />
        <path
            d="M7.85718 7.85709C7.85718 7.43327 7.98285 7.01898 8.21831 6.66658C8.45377 6.31419 8.78844 6.03954 9.18 5.87735C9.57155 5.71516 10.0024 5.67273 10.4181 5.75541C10.8338 5.83809 11.2156 6.04218 11.5153 6.34186C11.8149 6.64155 12.019 7.02337 12.1017 7.43904C12.1844 7.85471 12.142 8.28557 11.9798 8.67713C11.8176 9.06868 11.5429 9.40335 11.1905 9.63881C10.8382 9.87427 10.4239 9.99995 10 9.99995V11.4285"
            stroke="white" stroke-linecap="round" stroke-linejoin="round" />
        <path
            d="M9.99997 14.9999C9.80272 14.9999 9.64282 14.84 9.64282 14.6428C9.64282 14.4455 9.80272 14.2856 9.99997 14.2856"
            stroke="white" stroke-linecap="round" stroke-linejoin="round" />
        <path
            d="M10 14.9999C10.1972 14.9999 10.3571 14.84 10.3571 14.6428C10.3571 14.4455 10.1972 14.2856 10 14.2856"
            stroke="white" stroke-linecap="round" stroke-linejoin="round" />
    </g>
    <defs>
        <clipPath id="clip0_1438_24669">
            <rect width="20" height="20" fill="white" />
        </clipPath>
    </defs>
</svg>
    