<svg width="20" height="20" viewBox="0 0 20 20" fill="none" xmlns="http://www.w3.org/2000/svg">
    <path
        d="M7.143 7.14287C8.9182 7.14287 10.3573 5.70378 10.3573 3.92858C10.3573 2.15338 8.9182 0.714294 7.143 0.714294C5.3678 0.714294 3.92871 2.15338 3.92871 3.92858C3.92871 5.70378 5.3678 7.14287 7.143 7.14287Z"
        stroke="#2A2A2A" stroke-linecap="round" stroke-linejoin="round" />
    <path
        d="M5.00007 17.8571H0.714355V15.7143C0.725728 14.6254 1.01289 13.5572 1.54903 12.6094C2.08517 11.6616 2.85278 10.8652 3.78018 10.2945C4.70757 9.72376 5.76448 9.39742 6.85219 9.34592C7.9399 9.29443 9.02291 9.51946 10.0001 10"
        stroke="#2A2A2A" stroke-linecap="round" stroke-linejoin="round" />
    <path
        d="M19.2858 12.1429L12.5573 18.8714L9.5144 19.2857L9.94298 16.2429L16.6573 9.51428L19.2858 12.1429Z"
        stroke="#2A2A2A" stroke-linecap="round" stroke-linejoin="round" />
</svg>
    